<?xml version="1.0" encoding="UTF-8"?>
<svg xmlns="http://www.w3.org/2000/svg" viewBox="0 0 128 128" width="128" height="128">
  <defs>
    <linearGradient id="arrow3" x1="0" y1="0" x2="0" y2="1">
      <stop offset="0%" stop-color="#22C55E"/>
      <stop offset="100%" stop-color="#16A34A"/>
    </linearGradient>
    <filter id="shadow" x="-20%" y="-20%" width="140%" height="140%">
      <feDropShadow dx="0" dy="2" stdDeviation="2" flood-color="#000000" flood-opacity="0.25"/>
    </filter>
  </defs>
  <g transform="translate(-5.7113,-7.2113) scale(1.2018779343)" filter="url(#shadow)">
  <g transform="translate(6,6)">
    <rect x="0" y="0" width="52" height="92" rx="6" fill="#F0FDF4" stroke="rgba(34,197,94,0.4)" stroke-width="1.2"/>
    <rect x="0" y="0" width="52" height="14" rx="6" fill="#22C55E"/>
    <rect x="0" y="8" width="52" height="6" fill="#4ADE80"/>
    <circle cx="9" cy="7" r="2.5" fill="#EF4444" opacity="0.9"/>
    <circle cx="17" cy="7" r="2.5" fill="#F59E0B" opacity="0.9"/>
    <circle cx="25" cy="7" r="2.5" fill="#3B82F6" opacity="0.9"/>
    <rect x="5" y="20" width="38" height="4" rx="1" fill="#16A34A" opacity="0.7"/>
    <rect x="5" y="27" width="30" height="3.5" rx="1" fill="#22C55E" opacity="0.6"/>
    <rect x="5" y="33" width="42" height="3.5" rx="1" fill="#4ADE80" opacity="0.55"/>
    <rect x="5" y="39" width="25" height="3.5" rx="1" fill="#16A34A" opacity="0.55"/>
    <rect x="5" y="45" width="36" height="4" rx="1" fill="#22C55E" opacity="0.5"/>
    <rect x="5" y="52" width="18" height="3.5" rx="1" fill="#4ADE80" opacity="0.5"/>
    <rect x="5" y="58" width="40" height="3.5" rx="1" fill="#16A34A" opacity="0.45"/>
    <rect x="5" y="64" width="28" height="3.5" rx="1" fill="#22C55E" opacity="0.45"/>
    <rect x="5" y="70" width="35" height="4" rx="1" fill="#4ADE80" opacity="0.4"/>
    <rect x="5" y="77" width="22" height="3.5" rx="1" fill="#16A34A" opacity="0.4"/>
    <rect x="5" y="83" width="38" height="3.5" rx="1" fill="#22C55E" opacity="0.35"/>
  </g>
  <g transform="translate(38,14)">
    <rect x="0" y="0" width="72" height="86" rx="7" fill="#F0FDF4" stroke="rgba(34,197,94,0.3)" stroke-width="1.2"/>
    <text x="14" y="30" font-family="Arial,Helvetica,sans-serif" font-weight="900" font-size="24" fill="#16A34A">#</text>
    <rect x="12" y="38" width="50" height="3.5" rx="1.2" fill="#166534" opacity="0.7"/>
    <rect x="12" y="46" width="50" height="3.5" rx="1.2" fill="#166534" opacity="0.7"/>
    <rect x="12" y="54" width="50" height="3.5" rx="1.2" fill="#166534" opacity="0.7"/>
    <rect x="12" y="62" width="50" height="3.5" rx="1.2" fill="#166534" opacity="0.7"/>
    <rect x="12" y="70" width="50" height="3.5" rx="1.2" fill="#166534" opacity="0.7"/>
    <rect x="12" y="78" width="36" height="3.5" rx="1.2" fill="#166534" opacity="0.7"/>
  </g>
  <g transform="translate(40,76)">
    <rect x="14" y="-6" width="18" height="18" rx="2" fill="url(#arrow3)"/>
    <polygon points="2,10 23,30 44,10" fill="url(#arrow3)"/>
    <rect x="6" y="32" width="34" height="4.5" rx="2" fill="#16A34A" opacity="0.55"/>
  </g>
  </g>
</svg>
