<?xml version="1.0" encoding="UTF-8"?>
<svg xmlns="http://www.w3.org/2000/svg" viewBox="0 0 128 128" width="128" height="128">
  <defs>
    <linearGradient id="arrow3" x1="0" y1="0" x2="0" y2="1">
      <stop offset="0%" stop-color="#E06838"/>
      <stop offset="100%" stop-color="#CC3530"/>
    </linearGradient>
    <filter id="shadow" x="-20%" y="-20%" width="140%" height="140%">
      <feDropShadow dx="0" dy="2" stdDeviation="2" flood-color="#000000" flood-opacity="0.25"/>
    </filter>
  </defs>
  <!-- 左后: 窄长网页 -->
  <g transform="translate(-5.7113,-7.2113) scale(1.2018779343)" filter="url(#shadow)">
  <g transform="translate(6,6)">
    <rect x="0" y="0" width="52" height="92" rx="6" fill="#FFF1B8" stroke="rgba(15,23,42,0.22)" stroke-width="1.2"/>
    <rect x="0" y="0" width="52" height="14" rx="6" fill="#F97316"/>
    <rect x="0" y="8" width="52" height="6" fill="#FB923C"/>
    <circle cx="9" cy="7" r="2.5" fill="#D04040" opacity="0.9"/>
    <circle cx="17" cy="7" r="2.5" fill="#E0A030" opacity="0.9"/>
    <circle cx="25" cy="7" r="2.5" fill="#40A050" opacity="0.9"/>
    <rect x="5" y="20" width="38" height="4" rx="1" fill="#4888B8" opacity="0.7"/>
    <rect x="5" y="27" width="30" height="3.5" rx="1" fill="#60A8C8" opacity="0.6"/>
    <rect x="5" y="33" width="42" height="3.5" rx="1" fill="#60B8C0" opacity="0.55"/>
    <rect x="5" y="39" width="25" height="3.5" rx="1" fill="#50A0A8" opacity="0.55"/>
    <rect x="5" y="45" width="36" height="4" rx="1" fill="#4888B8" opacity="0.5"/>
    <rect x="5" y="52" width="18" height="3.5" rx="1" fill="#70B868" opacity="0.5"/>
    <rect x="5" y="58" width="40" height="3.5" rx="1" fill="#60A8C0" opacity="0.45"/>
    <rect x="5" y="64" width="28" height="3.5" rx="1" fill="#70B868" opacity="0.45"/>
    <rect x="5" y="70" width="35" height="4" rx="1" fill="#5090B8" opacity="0.4"/>
    <rect x="5" y="77" width="22" height="3.5" rx="1" fill="#60A8C0" opacity="0.4"/>
    <rect x="5" y="83" width="38" height="3.5" rx="1" fill="#50A0A8" opacity="0.35"/>
  </g>
  <!-- 右前: MD文档(浅灰白底) -->
  <g transform="translate(38,14)">
    <rect x="4" y="5" width="72" height="86" rx="7" fill="rgba(0,0,0,0.16)"/>
    <rect x="0" y="0" width="72" height="86" rx="7" fill="#FFF7D6" stroke="rgba(15,23,42,0.22)" stroke-width="1.2"/>
    <text x="14" y="30" font-family="Arial,Helvetica,sans-serif" font-weight="900" font-size="24" fill="#EF4444">#</text>
    <rect x="12" y="38" width="50" height="3.5" rx="1.2" fill="#334155" opacity="0.7"/>
    <rect x="12" y="46" width="50" height="3.5" rx="1.2" fill="#334155" opacity="0.7"/>
    <rect x="12" y="54" width="50" height="3.5" rx="1.2" fill="#334155" opacity="0.7"/>
    <rect x="12" y="62" width="50" height="3.5" rx="1.2" fill="#334155" opacity="0.7"/>
    <rect x="12" y="70" width="50" height="3.5" rx="1.2" fill="#334155" opacity="0.7"/>
    <rect x="12" y="78" width="36" height="3.5" rx="1.2" fill="#334155" opacity="0.7"/>
  </g>
  <!-- 底部大下载箭头 -->
  <g transform="translate(40,76)">
    <rect x="14" y="-6" width="18" height="18" rx="2" fill="url(#arrow3)"/>
    <polygon points="2,10 23,30 44,10" fill="url(#arrow3)"/>
    <rect x="6" y="32" width="34" height="4.5" rx="2" fill="#CC3530" opacity="0.55"/>
  </g>
  </g>
</svg>